<mxfile host="app.diagrams.net" modified="2023-09-24T17:19:16.131Z" agent="Mozilla/5.0 (Windows NT 10.0; Win64; x64) AppleWebKit/537.36 (KHTML, like Gecko) Chrome/116.0.0.0 Safari/537.36" etag="IEjvlJXeSGGSdFoIQxhR" version="21.8.2" type="device">
  <diagram name="Page-1" id="aiGxsNZq_PtRfXTAVNw5">
    <mxGraphModel dx="2707" dy="2063" grid="1" gridSize="10" guides="1" tooltips="1" connect="1" arrows="1" fold="1" page="1" pageScale="1" pageWidth="850" pageHeight="1100" math="0" shadow="0">
      <root>
        <mxCell id="0" />
        <mxCell id="1" parent="0" />
        <mxCell id="r1gO4MVDUj_kWpQQeu9S-1" value="" style="html=1;shape=mxgraph.basic.isocube;isoAngle=15;" parent="1" vertex="1">
          <mxGeometry x="-430" y="70" width="870" height="640" as="geometry" />
        </mxCell>
        <mxCell id="r1gO4MVDUj_kWpQQeu9S-2" value="" style="html=1;shape=mxgraph.basic.isocube;isoAngle=15;" parent="1" vertex="1">
          <mxGeometry x="-393" y="-100" width="790" height="562" as="geometry" />
        </mxCell>
        <mxCell id="r1gO4MVDUj_kWpQQeu9S-3" value="" style="html=1;shape=mxgraph.basic.isocube;isoAngle=15;" parent="1" vertex="1">
          <mxGeometry x="-348" y="-240" width="700" height="492" as="geometry" />
        </mxCell>
        <mxCell id="r1gO4MVDUj_kWpQQeu9S-4" value="" style="html=1;shape=mxgraph.basic.isocube;isoAngle=15;" parent="1" vertex="1">
          <mxGeometry x="-280" y="-360" width="540" height="420" as="geometry" />
        </mxCell>
        <mxCell id="r1gO4MVDUj_kWpQQeu9S-5" value="&lt;h1&gt;ConfigReader&lt;/h1&gt;&lt;p&gt;&lt;/p&gt;&lt;ul&gt;&lt;li&gt;&lt;font style=&quot;font-size: 16px;&quot;&gt;Reads config file to import necessary default user information&lt;/font&gt;&lt;/li&gt;&lt;/ul&gt;&lt;p&gt;&lt;/p&gt;" style="text;html=1;strokeColor=none;fillColor=none;spacing=5;spacingTop=-20;whiteSpace=wrap;overflow=hidden;rounded=0;rotation=0;" parent="1" vertex="1">
          <mxGeometry x="620" y="-210" width="320" height="120" as="geometry" />
        </mxCell>
        <mxCell id="r1gO4MVDUj_kWpQQeu9S-6" value="" style="endArrow=none;dashed=1;html=1;dashPattern=1 3;strokeWidth=2;rounded=0;" parent="1" edge="1">
          <mxGeometry width="50" height="50" relative="1" as="geometry">
            <mxPoint x="290" y="-234" as="sourcePoint" />
            <mxPoint x="960" y="-234" as="targetPoint" />
          </mxGeometry>
        </mxCell>
        <mxCell id="r1gO4MVDUj_kWpQQeu9S-7" value="" style="endArrow=none;dashed=1;html=1;dashPattern=1 3;strokeWidth=2;rounded=0;" parent="1" edge="1" source="rJ_j1Z3nRYFmrqDcMS-S-1">
          <mxGeometry width="50" height="50" relative="1" as="geometry">
            <mxPoint x="293" y="-68" as="sourcePoint" />
            <mxPoint x="960" y="-68" as="targetPoint" />
          </mxGeometry>
        </mxCell>
        <mxCell id="r1gO4MVDUj_kWpQQeu9S-8" value="" style="endArrow=none;dashed=1;html=1;dashPattern=1 3;strokeWidth=2;rounded=0;" parent="1" edge="1" source="rJ_j1Z3nRYFmrqDcMS-S-2">
          <mxGeometry width="50" height="50" relative="1" as="geometry">
            <mxPoint x="362" y="86" as="sourcePoint" />
            <mxPoint x="960" y="86" as="targetPoint" />
          </mxGeometry>
        </mxCell>
        <mxCell id="r1gO4MVDUj_kWpQQeu9S-9" value="" style="endArrow=none;dashed=1;html=1;dashPattern=1 3;strokeWidth=2;rounded=0;" parent="1" edge="1" source="rJ_j1Z3nRYFmrqDcMS-S-4">
          <mxGeometry width="50" height="50" relative="1" as="geometry">
            <mxPoint x="400" y="276" as="sourcePoint" />
            <mxPoint x="960" y="276" as="targetPoint" />
          </mxGeometry>
        </mxCell>
        <mxCell id="r1gO4MVDUj_kWpQQeu9S-10" value="" style="endArrow=none;dashed=1;html=1;dashPattern=1 3;strokeWidth=2;rounded=0;" parent="1" edge="1">
          <mxGeometry width="50" height="50" relative="1" as="geometry">
            <mxPoint x="448" y="499" as="sourcePoint" />
            <mxPoint x="960" y="499" as="targetPoint" />
          </mxGeometry>
        </mxCell>
        <mxCell id="r1gO4MVDUj_kWpQQeu9S-11" value="&lt;h1&gt;WidgetDefinitions&lt;/h1&gt;&lt;p&gt;&lt;/p&gt;&lt;ul&gt;&lt;li&gt;&lt;font style=&quot;font-size: 16px;&quot;&gt;Defining basic widgets necessary for the app and placing them in self&lt;/font&gt;&lt;/li&gt;&lt;/ul&gt;&lt;p&gt;&lt;/p&gt;" style="text;html=1;strokeColor=none;fillColor=none;spacing=5;spacingTop=-20;whiteSpace=wrap;overflow=hidden;rounded=0;rotation=0;" parent="1" vertex="1">
          <mxGeometry x="620" y="-59" width="320" height="130" as="geometry" />
        </mxCell>
        <mxCell id="r1gO4MVDUj_kWpQQeu9S-12" value="&lt;h1&gt;ConnectionWidgets&lt;/h1&gt;&lt;p&gt;&lt;/p&gt;&lt;ul&gt;&lt;li&gt;&lt;span style=&quot;font-size: 16px;&quot;&gt;Here we import and use any custom import method defined by the user&lt;/span&gt;&lt;/li&gt;&lt;li&gt;&lt;span style=&quot;font-size: 16px;&quot;&gt;Also, here we denime all the callback function that would be required in this and other child class(es)&lt;/span&gt;&lt;/li&gt;&lt;/ul&gt;&lt;p&gt;&lt;/p&gt;" style="text;html=1;strokeColor=none;fillColor=none;spacing=5;spacingTop=-20;whiteSpace=wrap;overflow=hidden;rounded=0;rotation=0;" parent="1" vertex="1">
          <mxGeometry x="620" y="100" width="320" height="160" as="geometry" />
        </mxCell>
        <mxCell id="r1gO4MVDUj_kWpQQeu9S-13" value="&lt;h1&gt;Dashboard&lt;/h1&gt;&lt;p&gt;&lt;/p&gt;&lt;ul&gt;&lt;li&gt;&lt;span style=&quot;font-size: 16px;&quot;&gt;Defined the final `App` class.&lt;/span&gt;&lt;/li&gt;&lt;li&gt;&lt;span style=&quot;font-size: 16px;&quot;&gt;This is where the template is finally served&lt;/span&gt;&lt;/li&gt;&lt;li&gt;&lt;span style=&quot;font-size: 16px;&quot;&gt;All the plots and the `GridSpec` for panel is made here. Any new [;pts would be attached here&lt;/span&gt;&lt;/li&gt;&lt;/ul&gt;&lt;p&gt;&lt;/p&gt;" style="text;html=1;strokeColor=none;fillColor=none;spacing=5;spacingTop=-20;whiteSpace=wrap;overflow=hidden;rounded=0;rotation=0;" parent="1" vertex="1">
          <mxGeometry x="620" y="302" width="320" height="178" as="geometry" />
        </mxCell>
        <mxCell id="rJ_j1Z3nRYFmrqDcMS-S-3" value="" style="endArrow=none;dashed=1;html=1;dashPattern=1 3;strokeWidth=2;rounded=0;" edge="1" parent="1" target="rJ_j1Z3nRYFmrqDcMS-S-2">
          <mxGeometry width="50" height="50" relative="1" as="geometry">
            <mxPoint x="362" y="86" as="sourcePoint" />
            <mxPoint x="960" y="86" as="targetPoint" />
          </mxGeometry>
        </mxCell>
        <mxCell id="rJ_j1Z3nRYFmrqDcMS-S-2" value="extends" style="text;html=1;strokeColor=none;fillColor=none;align=center;verticalAlign=middle;whiteSpace=wrap;rounded=0;strokeWidth=0;fontSize=21;rotation=0;" vertex="1" parent="1">
          <mxGeometry x="668" y="50" width="190" height="70" as="geometry" />
        </mxCell>
        <mxCell id="rJ_j1Z3nRYFmrqDcMS-S-5" value="" style="endArrow=none;dashed=1;html=1;dashPattern=1 3;strokeWidth=2;rounded=0;" edge="1" parent="1" target="rJ_j1Z3nRYFmrqDcMS-S-4">
          <mxGeometry width="50" height="50" relative="1" as="geometry">
            <mxPoint x="400" y="276" as="sourcePoint" />
            <mxPoint x="960" y="276" as="targetPoint" />
          </mxGeometry>
        </mxCell>
        <mxCell id="rJ_j1Z3nRYFmrqDcMS-S-4" value="extends" style="text;html=1;strokeColor=none;fillColor=none;align=center;verticalAlign=middle;whiteSpace=wrap;rounded=0;strokeWidth=0;fontSize=21;rotation=0;" vertex="1" parent="1">
          <mxGeometry x="680" y="245" width="190" height="70" as="geometry" />
        </mxCell>
        <mxCell id="rJ_j1Z3nRYFmrqDcMS-S-7" value="" style="endArrow=none;dashed=1;html=1;dashPattern=1 3;strokeWidth=2;rounded=0;" edge="1" parent="1" target="rJ_j1Z3nRYFmrqDcMS-S-1">
          <mxGeometry width="50" height="50" relative="1" as="geometry">
            <mxPoint x="293" y="-68" as="sourcePoint" />
            <mxPoint x="960" y="-68" as="targetPoint" />
          </mxGeometry>
        </mxCell>
        <mxCell id="rJ_j1Z3nRYFmrqDcMS-S-1" value="extends" style="text;html=1;strokeColor=none;fillColor=none;align=center;verticalAlign=middle;whiteSpace=wrap;rounded=0;strokeWidth=0;fontSize=21;rotation=0;" vertex="1" parent="1">
          <mxGeometry x="654" y="-106" width="190" height="70" as="geometry" />
        </mxCell>
      </root>
    </mxGraphModel>
  </diagram>
</mxfile>
